<?xml version="1.0" encoding="utf-8"?>
<!-- Generator: Adobe Illustrator 18.1.1, SVG Export Plug-In . SVG Version: 6.00 Build 0)  -->
<svg version="1.1" xmlns="http://www.w3.org/2000/svg" xmlns:xlink="http://www.w3.org/1999/xlink" x="0px" y="0px"
	 viewBox="134 -16.2 429.4 195.2" enable-background="new 134 -16.2 429.4 195.2" xml:space="preserve">
<g id="Layer_1">
	<g id="Layer_1_2_">
		<g>
			<path fill="#063953" d="M561.8,55.1c-1.8-0.4-3.7,0.7-4.1,2.6c-2.1,9.1-8.5,17.1-13.9,17.1c-1.3,0-2.4-0.5-3.3-1.7
				c-2-2.6-3.4-8.8-0.9-18c3.4-12.6,11.7-21.5,17-21.5c0.4,0,0.6,0.9,0.7,1.1c0.9,3.7-2,11.9-13.7,18.1c-1.7,0.9-2.3,2.9-1.4,4.6
				c0.9,1.7,2.9,2.3,4.6,1.4c14.2-7.7,18.9-18.7,17.1-25.7c-1-3.8-3.7-6.2-7.3-6.2c-9.2,0-19.6,11.6-23.6,26.5
				c-2.6,9.8-1.9,18.8,2.1,23.9c2.2,2.8,5.2,4.4,8.6,4.4c9.6,0,18-11.3,20.5-22.4C564.8,57.3,563.6,55.5,561.8,55.1z"/>
			<path fill="#063953" d="M552.7,87c-39.3,17.6-101.6,10-146.9,4.6l-3.2-0.4c-2.9-0.4-5.8-0.7-8.5-1c-1.9-0.2-3.6,1.1-3.8,3
				c-0.2,1.9,1.1,3.6,3,3.8c2.8,0.3,5.6,0.7,8.5,1l3.2,0.4c24.3,3,53.4,6.5,81.4,6.5c25.2,0,49.7-2.9,69.2-11.6
				c1.7-0.8,2.5-2.8,1.7-4.5C556.5,87,554.4,86.3,552.7,87z"/>
			<path fill="#063953" d="M231.3,77.9c-18.8,1.5-35.2,4.5-48.9,9c-1.8,0.6-2.7,2.5-2.1,4.3c0.5,1.4,1.8,2.3,3.2,2.3
				c0.4,0,0.7-0.1,1.1-0.2c13.1-4.4,29-7.4,47.3-8.7c1.9-0.1,3.3-1.8,3.1-3.7C234.8,79.1,233.2,77.7,231.3,77.9z"/>
			<path fill="#063953" d="M329.5,82.3c-5.8-0.9-17.8-2.5-32.9-3.8c-1.9-0.2-3.5,1.2-3.7,3.1c-0.2,1.9,1.2,3.5,3.1,3.7
				c15,1.2,26.7,2.9,32.4,3.7c0.2,0,0.3,0,0.5,0c1.7,0,3.1-1.2,3.4-2.9C332.6,84.2,331.3,82.5,329.5,82.3z"/>
			<path fill="#063953" d="M202.4-8.2c0.2-1-0.1-2-0.8-2.8c-0.6-0.8-1.6-1.2-2.6-1.2c-14.4,0-26.6,7.8-34.3,22
				c-7.8,14.2-9.1,32.5-3.3,41.4c1,1.6,3.1,2,4.7,1c1.6-1,2-3.1,1-4.7c-4-6.2-3.5-21.5,3.6-34.6c3.4-6.3,10.8-16.4,24.2-18.1
				c-7.1,39.4-24.3,97.6-43.4,97.6c-3,0-5.2-0.9-6.7-2.9c-4.6-5.8-3-18.9-1.9-23.5c0.4-1.8-0.7-3.7-2.6-4.1
				c-1.8-0.4-3.7,0.7-4.1,2.6c0,0.2-1.1,4.9-1.3,10.6c-0.3,8.1,1.2,14.4,4.5,18.5c2.8,3.6,7,5.4,11.9,5.4
				c14.1,0,26.9-18.4,38.2-54.7C197.9,18.6,202.4-7.9,202.4-8.2z"/>
			<path fill="#063953" d="M497.2,21.1c2.6,0,4.7,2.1,4.7,4.7c0,2.6-2.1,4.7-4.7,4.7c-2.6,0-4.7-2.1-4.7-4.7
				C492.6,23.2,494.7,21.1,497.2,21.1z"/>
			<path fill="#063953" d="M288.9,56.1c-1.9,0-3.4,1.4-3.5,3.3c-0.5,16.5-12.2,27.5-22.9,27.5c-4.1,0-7.6-1.8-10.2-5.3
				c-6.5-8.4-7.5-24.7-2.7-42.5c7.2-26.8,25.8-49.6,40.7-49.6c4.7,0,7.7,1.5,9.6,4.5c3.5,5.5,2.1,15.9-1.2,22.8
				c-0.8,1.7-0.1,3.7,1.6,4.5c1.7,0.8,3.7,0.1,4.5-1.6c5.8-11.9,4.5-23.6,0.9-29.3c-2.2-3.5-6.6-7.5-15.4-7.5
				c-16.9,0-35.8,20.3-45.1,47.4c-2.8,1.6-5.4,2.1-7.5,1.4c-3.6-1.1-5.5-5-5.5-5c-0.8-1.7-2.7-2.4-4.4-1.7c-1.7,0.7-2.5,2.6-1.9,4.3
				c1.5,4.1,1.4,10-0.3,16.3c-3.5,13.1-12.1,22.2-17.6,22.2c-1.4,0-2.5-0.6-3.5-1.8c-2.7-3.5-3.1-10.8-1-18.7
				c3.5-13.1,12.1-22.2,17.6-22.2c1.9,0,3.4-1.5,3.4-3.4s-1.5-3.4-3.4-3.4c-9.4,0-20.1,11.9-24.1,27.2c-2.7,10.1-1.9,19.3,2.1,24.5
				c2.2,2.9,5.4,4.5,8.7,4.5c9.4,0,20.1-11.9,24.1-27.2c0.9-3.5,1.5-6.9,1.6-10c0.6,0.3,1.2,0.5,1.9,0.7c4.2,1.3,8.7,0.5,13.5-2.4
				c0.1-0.1,0.2-0.1,0.3-0.2l0,0c-1.9,2.4-5.2,3.8-7.2,4.5c-4.6,19.1-3,36.1,4.5,45.8c4,5.2,9.3,7.9,15.6,7.9
				c15.5,0,29-15.6,29.6-34.1C292.1,57.7,290.6,56.2,288.9,56.1z"/>
			<path fill="#063953" d="M385.5,68.5c-1.9,0-3.4,1.4-3.5,3.3c-0.5,16.5-12.2,27.5-22.9,27.5c-4.1,0-7.6-1.8-10.2-5.3
				c-6.5-8.3-7.5-24.7-2.7-42.6c7.2-26.8,25.8-49.6,40.7-49.6c4.7,0,7.8,1.5,9.6,4.5c3.5,5.5,2.1,15.9-1.2,22.8
				c-0.8,1.7-0.1,3.7,1.6,4.5c1.7,0.8,3.7,0.1,4.5-1.6c5.8-11.9,4.5-23.5,0.9-29.3c-2.2-3.5-6.6-7.6-15.4-7.6
				c-14.1,0-29.6,14.2-39.7,34.6c-2.8,1.5-5.3,2-7.5,1.4c-3.6-1.1-5.5-5-5.5-5c-0.8-1.7-2.7-2.4-4.4-1.7c-1.7,0.7-2.5,2.6-1.9,4.3
				c1.5,4.1,1.4,10-0.3,16.3c-3.5,13.1-12.1,22.2-17.6,22.2c-1.4,0-2.5-0.6-3.5-1.8c-2.7-3.5-3.1-10.8-1-18.7
				c3.5-13.1,12.1-22.2,17.6-22.2c1.9,0,3.4-1.5,3.4-3.4c0-1.9-1.5-3.4-3.4-3.4c-9.4,0-20.1,11.9-24.1,27.2
				c-2.7,10.1-1.9,19.3,2.1,24.5c2.2,2.9,5.4,4.5,8.7,4.5c9.4,0,20.1-11.9,24.1-27.2c0.9-3.5,1.5-6.9,1.6-10
				c0.6,0.3,1.2,0.5,1.9,0.7c4,1.2,8.3,0.6,12.8-2c-2.4,2.7-6.5,4.1-7.9,4.5c-1.2,3.1-2.2,6.4-3.1,9.6c-5.4,20.2-4,38.3,3.9,48.4
				c4,5.2,9.3,7.8,15.6,7.8c15.5,0,29-15.6,29.6-34.1C388.8,70.2,387.4,68.6,385.5,68.5z"/>
			<path fill="#063953" d="M415.5,22.9c-0.1,0.1-0.1,0.2-0.2,0.3v0.1c-0.4,1.1-0.7,2.4-0.8,3.9c-3.1,14.1-10.7,43.2-19.8,51.5
				c-1.4,1.3-1.5,3.4-0.2,4.8c0.7,0.7,1.6,1.1,2.5,1.1c0.8,0,1.6-0.3,2.3-0.9c8.4-7.8,15-28,18.9-42.6c-1.1-1.4-2.6-3.8-2.7-6.7
				c1.2,3,3.5,5.9,7.6,7.7c4.3,1.9,6.7,3,2.2,13.8c-3.5,8.5-6.6,18.1-3.7,24.2c1.2,2.5,3.4,4.3,6.2,5.1c0.8,0.2,1.8,0.4,2.8,0.4
				c3.3,0,7.4-1.6,11.6-7.4c1-1.3,1.8-2.6,2.5-3.8c-0.6,3.3-2,5.9-2.8,7.1c0.1,0.3,0.3,0.6,0.4,0.9c1.5,2.8,3.9,4.6,6.9,5.3
				c0.8,0.2,1.6,0.3,2.3,0.3c4.6,0,8.8-3.2,12.7-9.3c0.6,4.6,2.1,8.1,4.6,10.2c0.6,0.6,1.5,0.9,2.3,0.9c0.9,0,1.9-0.4,2.5-1.1
				c1.2-1.4,1.1-3.6-0.3-4.8c-5.9-5.3-0.9-29.1,4.6-44.4c0.6-1.8-0.3-3.7-2.1-4.3c-1.8-0.6-3.7,0.3-4.3,2.1
				c-0.1,0.3-2.3,6.4-4.3,14.3c-0.1,0.2-0.2,0.5-0.2,0.7c0,0.1-1.9,8.4-5.2,16.3c-3.8,8.8-7.9,13.5-11.2,12.8
				c-1-0.2-1.8-0.8-2.3-1.9c-3.9-7.3,2.2-29.1,6.9-41.3c0.7-1.8-0.2-3.7-1.9-4.4c-1.8-0.7-3.7,0.2-4.4,1.9c-1,2.5-7.1,18.6-8.2,32.2
				c-1.9,4.3-6.9,12.3-10.9,11.1c-1.3-0.4-1.8-1-2-1.6c-2.1-4.3,2.4-15.2,3.8-18.8c4.3-10.4,4.8-17.9-5.8-22.6
				c-4.1-1.8-4.7-5.2-4.6-7.7c0.4-1.8,0.6-3,0.7-3.2v-0.1c0-0.1,0-0.2,0-0.4c0-0.1,0-0.2,0-0.3s0-0.2,0-0.3c0-0.1,0-0.2-0.1-0.3
				c-0.1-0.1-0.1-0.2-0.1-0.3c0-0.1-0.1-0.2-0.1-0.3c0-0.1-0.1-0.2-0.2-0.3c-0.1-0.1-0.1-0.2-0.2-0.3c-0.1-0.1-0.1-0.2-0.2-0.3
				c-0.1-0.1-0.1-0.2-0.2-0.2c-0.1-0.1-0.2-0.1-0.2-0.2c-0.1-0.1-0.2-0.1-0.3-0.2c-0.1-0.1-0.2-0.1-0.3-0.1
				c-0.1-0.1-0.2-0.1-0.3-0.2h-0.1c-0.1,0-0.2,0-0.2-0.1c-0.1,0-0.2-0.1-0.2-0.1h-0.1c-0.1,0-0.3,0-0.4,0s-0.2,0-0.3,0
				c-0.1,0-0.3,0-0.4,0c-0.1,0-0.2,0-0.2,0c-0.1,0-0.3,0.1-0.4,0.1s-0.1,0-0.2,0.1c-0.1,0.1-0.2,0.1-0.4,0.2c-0.1,0-0.1,0.1-0.2,0.1
				c-0.1,0.1-0.2,0.2-0.3,0.3c-0.1,0.1-0.1,0.1-0.2,0.2c-0.1,0.1-0.2,0.2-0.2,0.3c-0.1,0.1-0.1,0.2-0.2,0.2
				C415.6,22.7,415.6,22.8,415.5,22.9z"/>
			<path fill="#063953" d="M489.2,91.3c7.6,0,14.6-9,22.5-28.4c1.2-3,2.3-6,3.3-8.7c-0.5-1.8-1.2-5.2-0.8-8.6
				c0.8,4.4,2.4,9.9,5.8,16.2c6.3,11.6,3.5,17.3,2.4,18.7c-1.1,1.6-2.7,2.3-4.3,2.1c-1.9-0.3-3.6-2-4.4-4.8
				c-0.6-1.8-2.5-2.8-4.3-2.2c-1.8,0.6-2.8,2.5-2.2,4.3c1.7,5.2,5.4,8.6,9.8,9.3c0.5,0.1,1.1,0.1,1.6,0.1c3.6,0,7-1.8,9.2-5
				c2-2.9,5.9-11.2-2-25.8c-7.2-13.2-5.4-22.3-5.3-22.5c0-0.1,0-0.2,0-0.3c0-0.1,0-0.2,0-0.3s0-0.2,0-0.3c0-0.1,0-0.2,0-0.3
				c0-0.1-0.1-0.2-0.1-0.3c0-0.1,0-0.2-0.1-0.3c0-0.1-0.1-0.2-0.1-0.3s-0.1-0.2-0.1-0.3c-0.1-0.1-0.1-0.2-0.2-0.3
				c-0.1-0.1-0.1-0.2-0.2-0.3c-0.1-0.1-0.1-0.1-0.2-0.2c-0.1-0.1-0.2-0.2-0.3-0.2c-0.1-0.1-0.2-0.1-0.3-0.2
				c-0.1-0.1-0.2-0.1-0.3-0.2c-0.1,0-0.2-0.1-0.3-0.1c-0.1,0-0.2-0.1-0.3-0.1l0,0l0,0c-0.1,0-0.2,0-0.3,0c-0.1,0-0.3,0-0.4-0.1
				c-0.1,0-0.2,0-0.3,0c-0.1,0-0.3,0-0.4,0c-0.1,0-0.2,0-0.2,0.1c-0.1,0-0.3,0.1-0.4,0.1c-0.1,0-0.1,0.1-0.2,0.1
				c-0.1,0.1-0.3,0.1-0.4,0.2c-0.1,0-0.1,0.1-0.2,0.1c-0.1,0.1-0.2,0.2-0.3,0.2c-0.1,0.1-0.1,0.1-0.2,0.2c-0.1,0.1-0.2,0.2-0.3,0.3
				c-0.1,0.1-0.1,0.2-0.2,0.3c-0.1,0.1-0.1,0.2-0.2,0.3c0,0.1-0.1,0.2-0.1,0.3c0,0.1-0.1,0.2-0.1,0.3c0,0.1-3.6,13.1-8.7,25.9
				c-9.2,23.1-15.1,24.2-16.2,24.2c-0.9,0-1.3-0.3-1.6-0.8c-2.4-3.4-1.5-19.3,7.7-44c0.7-1.8-0.2-3.7-2-4.4c-1.8-0.7-3.7,0.2-4.4,2
				c-2.4,6.6-14.2,39.6-6.9,50.2C483.7,90,486.2,91.3,489.2,91.3z"/>
		</g>
	</g>
</g>
</svg>
