<?xml version="1.0" encoding="UTF-8" standalone="no"?>
<!-- Generator: Adobe Illustrator 18.1.1, SVG Export Plug-In . SVG Version: 6.00 Build 0)  -->

<svg
   xmlns:dc="http://purl.org/dc/elements/1.1/"
   xmlns:cc="http://creativecommons.org/ns#"
   xmlns:rdf="http://www.w3.org/1999/02/22-rdf-syntax-ns#"
   xmlns:svg="http://www.w3.org/2000/svg"
   xmlns="http://www.w3.org/2000/svg"
   xmlns:sodipodi="http://sodipodi.sourceforge.net/DTD/sodipodi-0.dtd"
   xmlns:inkscape="http://www.inkscape.org/namespaces/inkscape"
   version="1.1"
   x="0px"
   y="0px"
   viewBox="134 -16.2 429.49357 122.8"
   enable-background="new 134 -16.2 429.4 195.2"
   xml:space="preserve"
   id="svg3071"
   inkscape:version="0.48.4 r9939"
   width="100%"
   height="100%"
   sodipodi:docname="joco.svg"><metadata
     id="metadata3101"><rdf:RDF><cc:Work
         rdf:about=""><dc:format>image/svg+xml</dc:format><dc:type
           rdf:resource="http://purl.org/dc/dcmitype/StillImage" /></cc:Work></rdf:RDF></metadata><defs
     id="defs3099" /><sodipodi:namedview
     pagecolor="#ffffff"
     bordercolor="#666666"
     borderopacity="1"
     objecttolerance="10"
     gridtolerance="10"
     guidetolerance="10"
     inkscape:pageopacity="0"
     inkscape:pageshadow="2"
     inkscape:window-width="640"
     inkscape:window-height="480"
     id="namedview3097"
     showgrid="false"
     fit-margin-top="0"
     fit-margin-left="0"
     fit-margin-right="0"
     fit-margin-bottom="0"
     inkscape:zoom="0.78947368"
     inkscape:cx="213.8375"
     inkscape:cy="24.299998"
     inkscape:window-x="75"
     inkscape:window-y="34"
     inkscape:window-maximized="0"
     inkscape:current-layer="svg3071" /><g
     id="Layer_1"
     transform="translate(-0.8625003,0.9)"><g
       id="Layer_1_2_"><g
         id="g3075"><path
           d="m 561.8,55.1 c -1.8,-0.4 -3.7,0.7 -4.1,2.6 -2.1,9.1 -8.5,17.1 -13.9,17.1 -1.3,0 -2.4,-0.5 -3.3,-1.7 -2,-2.6 -3.4,-8.8 -0.9,-18 3.4,-12.6 11.7,-21.5 17,-21.5 0.4,0 0.6,0.9 0.7,1.1 0.9,3.7 -2,11.9 -13.7,18.1 -1.7,0.9 -2.3,2.9 -1.4,4.6 0.9,1.7 2.9,2.3 4.6,1.4 14.2,-7.7 18.9,-18.7 17.1,-25.7 -1,-3.8 -3.7,-6.2 -7.3,-6.2 -9.2,0 -19.6,11.6 -23.6,26.5 -2.6,9.8 -1.9,18.8 2.1,23.9 2.2,2.8 5.2,4.4 8.6,4.4 9.6,0 18,-11.3 20.5,-22.4 0.6,-2 -0.6,-3.8 -2.4,-4.2 z"
           id="path3077"
           inkscape:connector-curvature="0"
           style="fill:#063953" /><path
           d="m 552.7,87 c -39.3,17.6 -101.6,10 -146.9,4.6 l -3.2,-0.4 c -2.9,-0.4 -5.8,-0.7 -8.5,-1 -1.9,-0.2 -3.6,1.1 -3.8,3 -0.2,1.9 1.1,3.6 3,3.8 2.8,0.3 5.6,0.7 8.5,1 l 3.2,0.4 c 24.3,3 53.4,6.5 81.4,6.5 25.2,0 49.7,-2.9 69.2,-11.6 1.7,-0.8 2.5,-2.8 1.7,-4.5 -0.8,-1.8 -2.9,-2.5 -4.6,-1.8 z"
           id="path3079"
           inkscape:connector-curvature="0"
           style="fill:#063953" /><path
           d="m 231.3,77.9 c -18.8,1.5 -35.2,4.5 -48.9,9 -1.8,0.6 -2.7,2.5 -2.1,4.3 0.5,1.4 1.8,2.3 3.2,2.3 0.4,0 0.7,-0.1 1.1,-0.2 13.1,-4.4 29,-7.4 47.3,-8.7 1.9,-0.1 3.3,-1.8 3.1,-3.7 -0.2,-1.8 -1.8,-3.2 -3.7,-3 z"
           id="path3081"
           inkscape:connector-curvature="0"
           style="fill:#063953" /><path
           d="m 329.5,82.3 c -5.8,-0.9 -17.8,-2.5 -32.9,-3.8 -1.9,-0.2 -3.5,1.2 -3.7,3.1 -0.2,1.9 1.2,3.5 3.1,3.7 15,1.2 26.7,2.9 32.4,3.7 0.2,0 0.3,0 0.5,0 1.7,0 3.1,-1.2 3.4,-2.9 0.3,-1.9 -1,-3.6 -2.8,-3.8 z"
           id="path3083"
           inkscape:connector-curvature="0"
           style="fill:#063953" /><path
           d="m 202.4,-8.2 c 0.2,-1 -0.1,-2 -0.8,-2.8 -0.6,-0.8 -1.6,-1.2 -2.6,-1.2 -14.4,0 -26.6,7.8 -34.3,22 -7.8,14.2 -9.1,32.5 -3.3,41.4 1,1.6 3.1,2 4.7,1 1.6,-1 2,-3.1 1,-4.7 -4,-6.2 -3.5,-21.5 3.6,-34.6 3.4,-6.3 10.8,-16.4 24.2,-18.1 -7.1,39.4 -24.3,97.6 -43.4,97.6 -3,0 -5.2,-0.9 -6.7,-2.9 -4.6,-5.8 -3,-18.9 -1.9,-23.5 0.4,-1.8 -0.7,-3.7 -2.6,-4.1 -1.8,-0.4 -3.7,0.7 -4.1,2.6 0,0.2 -1.1,4.9 -1.3,10.6 -0.3,8.1 1.2,14.4 4.5,18.5 2.8,3.6 7,5.4 11.9,5.4 14.1,0 26.9,-18.4 38.2,-54.7 8.4,-25.7 12.9,-52.2 12.9,-52.5 z"
           id="path3085"
           inkscape:connector-curvature="0"
           style="fill:#063953" /><path
           d="m 497.2,21.1 c 2.6,0 4.7,2.1 4.7,4.7 0,2.6 -2.1,4.7 -4.7,4.7 -2.6,0 -4.7,-2.1 -4.7,-4.7 0.1,-2.6 2.2,-4.7 4.7,-4.7 z"
           id="path3087"
           inkscape:connector-curvature="0"
           style="fill:#063953" /><path
           d="m 288.9,56.1 c -1.9,0 -3.4,1.4 -3.5,3.3 -0.5,16.5 -12.2,27.5 -22.9,27.5 -4.1,0 -7.6,-1.8 -10.2,-5.3 -6.5,-8.4 -7.5,-24.7 -2.7,-42.5 7.2,-26.8 25.8,-49.6 40.7,-49.6 4.7,0 7.7,1.5 9.6,4.5 3.5,5.5 2.1,15.9 -1.2,22.8 -0.8,1.7 -0.1,3.7 1.6,4.5 1.7,0.8 3.7,0.1 4.5,-1.6 5.8,-11.9 4.5,-23.6 0.9,-29.3 -2.2,-3.5 -6.6,-7.5 -15.4,-7.5 -16.9,0 -35.8,20.3 -45.1,47.4 -2.8,1.6 -5.4,2.1 -7.5,1.4 -3.6,-1.1 -5.5,-5 -5.5,-5 -0.8,-1.7 -2.7,-2.4 -4.4,-1.7 -1.7,0.7 -2.5,2.6 -1.9,4.3 1.5,4.1 1.4,10 -0.3,16.3 -3.5,13.1 -12.1,22.2 -17.6,22.2 -1.4,0 -2.5,-0.6 -3.5,-1.8 -2.7,-3.5 -3.1,-10.8 -1,-18.7 3.5,-13.1 12.1,-22.2 17.6,-22.2 1.9,0 3.4,-1.5 3.4,-3.4 0,-1.9 -1.5,-3.4 -3.4,-3.4 -9.4,0 -20.1,11.9 -24.1,27.2 -2.7,10.1 -1.9,19.3 2.1,24.5 2.2,2.9 5.4,4.5 8.7,4.5 9.4,0 20.1,-11.9 24.1,-27.2 0.9,-3.5 1.5,-6.9 1.6,-10 0.6,0.3 1.2,0.5 1.9,0.7 4.2,1.3 8.7,0.5 13.5,-2.4 0.1,-0.1 0.2,-0.1 0.3,-0.2 l 0,0 c -1.9,2.4 -5.2,3.8 -7.2,4.5 -4.6,19.1 -3,36.1 4.5,45.8 4,5.2 9.3,7.9 15.6,7.9 15.5,0 29,-15.6 29.6,-34.1 0.4,-1.8 -1.1,-3.3 -2.8,-3.4 z"
           id="path3089"
           inkscape:connector-curvature="0"
           style="fill:#063953" /><path
           d="m 385.5,68.5 c -1.9,0 -3.4,1.4 -3.5,3.3 -0.5,16.5 -12.2,27.5 -22.9,27.5 -4.1,0 -7.6,-1.8 -10.2,-5.3 -6.5,-8.3 -7.5,-24.7 -2.7,-42.6 7.2,-26.8 25.8,-49.6 40.7,-49.6 4.7,0 7.8,1.5 9.6,4.5 3.5,5.5 2.1,15.9 -1.2,22.8 -0.8,1.7 -0.1,3.7 1.6,4.5 1.7,0.8 3.7,0.1 4.5,-1.6 5.8,-11.9 4.5,-23.5 0.9,-29.3 -2.2,-3.5 -6.6,-7.6 -15.4,-7.6 -14.1,0 -29.6,14.2 -39.7,34.6 -2.8,1.5 -5.3,2 -7.5,1.4 -3.6,-1.1 -5.5,-5 -5.5,-5 -0.8,-1.7 -2.7,-2.4 -4.4,-1.7 -1.7,0.7 -2.5,2.6 -1.9,4.3 1.5,4.1 1.4,10 -0.3,16.3 -3.5,13.1 -12.1,22.2 -17.6,22.2 -1.4,0 -2.5,-0.6 -3.5,-1.8 -2.7,-3.5 -3.1,-10.8 -1,-18.7 3.5,-13.1 12.1,-22.2 17.6,-22.2 1.9,0 3.4,-1.5 3.4,-3.4 0,-1.9 -1.5,-3.4 -3.4,-3.4 -9.4,0 -20.1,11.9 -24.1,27.2 -2.7,10.1 -1.9,19.3 2.1,24.5 2.2,2.9 5.4,4.5 8.7,4.5 9.4,0 20.1,-11.9 24.1,-27.2 0.9,-3.5 1.5,-6.9 1.6,-10 0.6,0.3 1.2,0.5 1.9,0.7 4,1.2 8.3,0.6 12.8,-2 -2.4,2.7 -6.5,4.1 -7.9,4.5 -1.2,3.1 -2.2,6.4 -3.1,9.6 -5.4,20.2 -4,38.3 3.9,48.4 4,5.2 9.3,7.8 15.6,7.8 15.5,0 29,-15.6 29.6,-34.1 0.5,-1.4 -0.9,-3 -2.8,-3.1 z"
           id="path3091"
           inkscape:connector-curvature="0"
           style="fill:#063953" /><path
           d="m 415.5,22.9 c -0.1,0.1 -0.1,0.2 -0.2,0.3 v 0.1 c -0.4,1.1 -0.7,2.4 -0.8,3.9 -3.1,14.1 -10.7,43.2 -19.8,51.5 -1.4,1.3 -1.5,3.4 -0.2,4.8 0.7,0.7 1.6,1.1 2.5,1.1 0.8,0 1.6,-0.3 2.3,-0.9 8.4,-7.8 15,-28 18.9,-42.6 -1.1,-1.4 -2.6,-3.8 -2.7,-6.7 1.2,3 3.5,5.9 7.6,7.7 4.3,1.9 6.7,3 2.2,13.8 -3.5,8.5 -6.6,18.1 -3.7,24.2 1.2,2.5 3.4,4.3 6.2,5.1 0.8,0.2 1.8,0.4 2.8,0.4 3.3,0 7.4,-1.6 11.6,-7.4 1,-1.3 1.8,-2.6 2.5,-3.8 -0.6,3.3 -2,5.9 -2.8,7.1 0.1,0.3 0.3,0.6 0.4,0.9 1.5,2.8 3.9,4.6 6.9,5.3 0.8,0.2 1.6,0.3 2.3,0.3 4.6,0 8.8,-3.2 12.7,-9.3 0.6,4.6 2.1,8.1 4.6,10.2 0.6,0.6 1.5,0.9 2.3,0.9 0.9,0 1.9,-0.4 2.5,-1.1 1.2,-1.4 1.1,-3.6 -0.3,-4.8 -5.9,-5.3 -0.9,-29.1 4.6,-44.4 0.6,-1.8 -0.3,-3.7 -2.1,-4.3 -1.8,-0.6 -3.7,0.3 -4.3,2.1 -0.1,0.3 -2.3,6.4 -4.3,14.3 -0.1,0.2 -0.2,0.5 -0.2,0.7 0,0.1 -1.9,8.4 -5.2,16.3 -3.8,8.8 -7.9,13.5 -11.2,12.8 -1,-0.2 -1.8,-0.8 -2.3,-1.9 -3.9,-7.3 2.2,-29.1 6.9,-41.3 0.7,-1.8 -0.2,-3.7 -1.9,-4.4 -1.8,-0.7 -3.7,0.2 -4.4,1.9 -1,2.5 -7.1,18.6 -8.2,32.2 -1.9,4.3 -6.9,12.3 -10.9,11.1 -1.3,-0.4 -1.8,-1 -2,-1.6 -2.1,-4.3 2.4,-15.2 3.8,-18.8 4.3,-10.4 4.8,-17.9 -5.8,-22.6 -4.1,-1.8 -4.7,-5.2 -4.6,-7.7 0.4,-1.8 0.6,-3 0.7,-3.2 V 25 c 0,-0.1 0,-0.2 0,-0.4 0,-0.1 0,-0.2 0,-0.3 0,-0.1 0,-0.2 0,-0.3 0,-0.1 0,-0.2 -0.1,-0.3 -0.1,-0.1 -0.1,-0.2 -0.1,-0.3 0,-0.1 -0.1,-0.2 -0.1,-0.3 0,-0.1 -0.1,-0.2 -0.2,-0.3 -0.1,-0.1 -0.1,-0.2 -0.2,-0.3 -0.1,-0.1 -0.1,-0.2 -0.2,-0.3 -0.1,-0.1 -0.1,-0.2 -0.2,-0.2 -0.1,-0.1 -0.2,-0.1 -0.2,-0.2 -0.1,-0.1 -0.2,-0.1 -0.3,-0.2 -0.1,-0.1 -0.2,-0.1 -0.3,-0.1 -0.1,-0.1 -0.2,-0.1 -0.3,-0.2 h -0.1 c -0.1,0 -0.2,0 -0.2,-0.1 -0.1,0 -0.2,-0.1 -0.2,-0.1 h -0.1 c -0.1,0 -0.3,0 -0.4,0 -0.1,0 -0.2,0 -0.3,0 -0.1,0 -0.3,0 -0.4,0 -0.1,0 -0.2,0 -0.2,0 -0.1,0 -0.3,0.1 -0.4,0.1 -0.1,0 -0.1,0 -0.2,0.1 -0.1,0.1 -0.2,0.1 -0.4,0.2 -0.1,0 -0.1,0.1 -0.2,0.1 -0.1,0.1 -0.2,0.2 -0.3,0.3 -0.1,0.1 -0.1,0.1 -0.2,0.2 -0.1,0.1 -0.2,0.2 -0.2,0.3 -0.1,0.1 -0.1,0.2 -0.2,0.2 -0.1,0.1 -0.1,0.2 -0.2,0.3 z"
           id="path3093"
           inkscape:connector-curvature="0"
           style="fill:#063953" /><path
           d="m 489.2,91.3 c 7.6,0 14.6,-9 22.5,-28.4 1.2,-3 2.3,-6 3.3,-8.7 -0.5,-1.8 -1.2,-5.2 -0.8,-8.6 0.8,4.4 2.4,9.9 5.8,16.2 6.3,11.6 3.5,17.3 2.4,18.7 -1.1,1.6 -2.7,2.3 -4.3,2.1 -1.9,-0.3 -3.6,-2 -4.4,-4.8 -0.6,-1.8 -2.5,-2.8 -4.3,-2.2 -1.8,0.6 -2.8,2.5 -2.2,4.3 1.7,5.2 5.4,8.6 9.8,9.3 0.5,0.1 1.1,0.1 1.6,0.1 3.6,0 7,-1.8 9.2,-5 2,-2.9 5.9,-11.2 -2,-25.8 -7.2,-13.2 -5.4,-22.3 -5.3,-22.5 0,-0.1 0,-0.2 0,-0.3 0,-0.1 0,-0.2 0,-0.3 0,-0.1 0,-0.2 0,-0.3 0,-0.1 0,-0.2 0,-0.3 0,-0.1 -0.1,-0.2 -0.1,-0.3 0,-0.1 0,-0.2 -0.1,-0.3 0,-0.1 -0.1,-0.2 -0.1,-0.3 0,-0.1 -0.1,-0.2 -0.1,-0.3 -0.1,-0.1 -0.1,-0.2 -0.2,-0.3 -0.1,-0.1 -0.1,-0.2 -0.2,-0.3 -0.1,-0.1 -0.1,-0.1 -0.2,-0.2 -0.1,-0.1 -0.2,-0.2 -0.3,-0.2 -0.1,-0.1 -0.2,-0.1 -0.3,-0.2 -0.1,-0.1 -0.2,-0.1 -0.3,-0.2 -0.1,0 -0.2,-0.1 -0.3,-0.1 -0.1,0 -0.2,-0.1 -0.3,-0.1 l 0,0 0,0 c -0.1,0 -0.2,0 -0.3,0 -0.1,0 -0.3,0 -0.4,-0.1 -0.1,0 -0.2,0 -0.3,0 -0.1,0 -0.3,0 -0.4,0 -0.1,0 -0.2,0 -0.2,0.1 -0.1,0 -0.3,0.1 -0.4,0.1 -0.1,0 -0.1,0.1 -0.2,0.1 -0.1,0.1 -0.3,0.1 -0.4,0.2 -0.1,0 -0.1,0.1 -0.2,0.1 -0.1,0.1 -0.2,0.2 -0.3,0.2 -0.1,0.1 -0.1,0.1 -0.2,0.2 -0.1,0.1 -0.2,0.2 -0.3,0.3 -0.1,0.1 -0.1,0.2 -0.2,0.3 -0.1,0.1 -0.1,0.2 -0.2,0.3 0,0.1 -0.1,0.2 -0.1,0.3 0,0.1 -0.1,0.2 -0.1,0.3 0,0.1 -3.6,13.1 -8.7,25.9 -9.2,23.1 -15.1,24.2 -16.2,24.2 -0.9,0 -1.3,-0.3 -1.6,-0.8 -2.4,-3.4 -1.5,-19.3 7.7,-44 0.7,-1.8 -0.2,-3.7 -2,-4.4 -1.8,-0.7 -3.7,0.2 -4.4,2 -2.4,6.6 -14.2,39.6 -6.9,50.2 2,2.5 4.5,3.8 7.5,3.8 z"
           id="path3095"
           inkscape:connector-curvature="0"
           style="fill:#063953" /></g></g></g></svg>